<svg width="134" height="22" viewBox="0 0 134 22" xmlns="http://www.w3.org/2000/svg" class="h-5 w-auto sm:h-7"><path d="M49.1518 4.22269L43.5945 17.7707L49.1518 4.22269ZM49.1518 4.22269L43.5945 17.7707L49.1518 4.22269ZM39.1444 17.7707L33.5861 4.22269L39.1444 17.7707ZM33.5861 4.22269H38.7319L41.4067 12.0383L44.0832 4.22269H49.1518L43.5945 17.7707H39.1444L33.5861 4.22269Z" fill="currentColor"></path><path d="M58.2255 9.87905C58.0451 8.37699 57.1439 7.42579 55.8061 7.42579C54.5208 7.42579 53.6457 8.40168 53.389 9.87905H58.2255ZM48.7575 11.0041C48.7575 7.05016 51.6652 3.92209 55.781 3.92209C60.5915 3.92209 62.8045 7.35123 62.8045 11.3298C62.8045 11.6304 62.8045 11.9809 62.7789 12.3057H53.4662C53.8512 13.7817 54.9579 14.5334 56.4757 14.5334C57.6326 14.5334 58.5603 14.1079 59.5638 13.1577L62.2641 15.3336C60.9263 16.9862 58.997 18.0865 56.2181 18.0865C51.8447 18.0865 48.7575 15.2595 48.7575 11.0041Z" fill="currentColor"></path><path d="M63.2588 16.0601L65.0844 13.1814C66.6803 14.2081 68.4287 14.7347 69.8698 14.7347C70.7189 14.7347 71.1049 14.4835 71.1049 13.9578C71.1049 13.4321 70.3325 13.1814 68.8668 12.8072C66.1135 12.0811 63.9265 11.2049 63.9265 8.42731C63.9265 5.54904 66.2934 3.94772 69.5103 3.94772C71.5429 3.94772 73.6531 4.52328 75.2467 5.52339L73.5731 8.52752C72.1344 7.75108 70.5645 7.27572 69.4578 7.27572C68.7129 7.27572 68.3255 7.55068 68.3255 7.97712C68.3255 8.50187 69.1249 8.75214 70.5892 9.17763C73.3429 9.95312 75.5299 10.8545 75.5299 13.5333C75.5299 16.5108 73.2402 18.0618 69.8447 18.0618C67.5029 18.0618 65.1881 17.4121 63.2588 16.0601Z" fill="currentColor"></path><path d="M78.2623 13.557V8.05168H76.6147V4.22268H78.2623V0H83.15V4.22268H86.3925V8.05168H83.15V12.6319C83.15 13.5822 83.5861 13.9825 84.4878 13.9825C85.13 13.9825 85.7489 13.8078 86.3395 13.5333V17.2616C85.4662 17.7374 84.3069 18.0366 82.9449 18.0366C80.0107 18.0366 78.2623 16.7853 78.2623 13.557Z" fill="currentColor"></path><path d="M98.4664 10.9542C98.4664 9.17763 97.2058 7.90209 95.6103 7.90209C94.0404 7.90209 92.7793 9.17763 92.7793 11.004C92.7793 12.8072 94.0404 14.0827 95.6103 14.0827C97.2058 14.0827 98.4664 12.8319 98.4664 10.9542ZM92.8854 16.1095V17.7607H87.9958V0H92.8854V6.02534C93.8349 4.89891 95.0188 3.92208 97.1035 3.92208C100.421 3.92208 103.277 6.59995 103.277 10.9798C103.277 15.3853 100.421 18.0618 97.129 18.0618C95.0188 18.0618 93.7842 17.1358 92.8854 16.1095Z" fill="currentColor"></path><path d="M114.06 9.87905C113.879 8.37699 112.98 7.42579 111.641 7.42579C110.355 7.42579 109.481 8.40168 109.223 9.87905H114.06ZM104.593 11.0041C104.593 7.05016 107.5 3.92209 111.615 3.92209C116.426 3.92209 118.64 7.35123 118.64 11.3298C118.64 11.6304 118.64 11.9809 118.615 12.3057H109.299C109.686 13.7817 110.792 14.5334 112.311 14.5334C113.468 14.5334 114.394 14.1079 115.397 13.1577L118.1 15.3336C116.762 16.9862 114.831 18.0865 112.053 18.0865C107.679 18.0865 104.593 15.2595 104.593 11.0041Z" fill="currentColor"></path><path d="M129.42 9.87905C129.241 8.37699 128.339 7.42579 127.002 7.42579C125.715 7.42579 124.839 8.40168 124.584 9.87905H129.42ZM119.952 11.0041C119.952 7.05016 122.86 3.92209 126.977 3.92209C131.787 3.92209 134 7.35123 134 11.3298C134 11.6304 134 11.9809 133.974 12.3057H124.661C125.047 13.7817 126.153 14.5334 127.671 14.5334C128.828 14.5334 129.754 14.1079 130.758 13.1577L133.459 15.3336C132.121 16.9862 130.192 18.0865 127.413 18.0865C123.039 18.0865 119.952 15.2595 119.952 11.0041Z" fill="currentColor"></path><path d="M17.9363 7.327H17.9354H17.9363ZM21.5238 0V0.000474885L17.9372 7.32558L14.3497 0L0 0.000474885L7.17508 14.6545H14.3497L10.7682 21.9967L17.9237 22L28.6989 0H21.5238Z" fill="currentColor"></path></svg>